<svg xmlns="http://www.w3.org/2000/svg" width="21.375" height="14.09"><path data-name="Rectangle 18 copy 6" d="M0 6.09h21v1H0v-1zm0 1h21v1H0v-1zM13.949 0l7.438 6.69-.668.74L13.281.75zm-.668.75l7.438 6.68-.669.74-7.438-6.68zm6.348 5.34L12 12.63l.685.73 7.629-6.54zm.685.73l-7.629 6.54.686.73L21 7.54zM0 6.09h21v1H0v-1zm0 1h21v1H0v-1zM13.949 0l7.438 6.69-.668.74L13.281.75zm-.668.75l7.438 6.68-.669.74-7.438-6.68zm6.348 5.34L12 12.63l.685.73 7.629-6.54zm.685.73l-7.629 6.54.686.73L21 7.54z" fill="#fff" fill-rule="evenodd" opacity=".78"/></svg>